<svg width="263" height="163" viewBox="0 0 263 163" fill="none" xmlns="http://www.w3.org/2000/svg">
<path d="M39.0698 153.125L21.2174 156.429L27.1384 140.056L39.0698 153.125Z" fill="#7453AF"/>
<path opacity="0.8" d="M36.1853 142.681C46.1165 135.684 50.1533 124.787 55.5355 114.936C62.7187 101.791 72.7994 89.9556 85.2917 79.9997C93.8113 73.207 107.058 67.1696 119.463 73.0345C131.55 78.7508 132.964 93.773 122.876 98.753C112.788 103.735 96.1673 98.9333 87.7881 89.8976C79.4088 80.8619 78.7031 69.1491 83.7578 60.5428C88.8096 51.9365 98.8112 46.1087 109.872 42.3012C130.218 35.3005 154.229 34.4628 176.352 30.3132C198.475 26.1613 220.295 17.3612 226.954 0.421551" stroke="white" stroke-miterlimit="10" stroke-dasharray="5 5"/>
</svg>
