<svg width="23" height="23" viewBox="0 0 23 23" fill="none" xmlns="http://www.w3.org/2000/svg">
<path d="M11.2832 0.5C9.10761 0.5 6.98088 1.14514 5.17194 2.35383C3.36299 3.56253 1.9531 5.28049 1.12053 7.29048C0.287969 9.30047 0.0701326 11.5122 0.49457 13.646C0.919007 15.7798 1.96666 17.7398 3.50503 19.2782C5.04341 20.8166 7.00342 21.8642 9.13721 22.2886C11.271 22.7131 13.4827 22.4952 15.4927 21.6627C17.5027 20.8301 19.2207 19.4202 20.4294 17.6113C21.6381 15.8023 22.2832 13.6756 22.2832 11.5C22.2799 8.58363 21.1199 5.78765 19.0577 3.72546C16.9956 1.66328 14.1996 0.503295 11.2832 0.5ZM16.9341 9.25879L9.93409 15.2588C9.73419 15.4305 9.47456 15.5163 9.21172 15.4974C8.94888 15.4786 8.70413 15.3567 8.53077 15.1582L5.53077 11.7295C5.44393 11.6307 5.37742 11.5158 5.33506 11.3913C5.2927 11.2668 5.27532 11.1352 5.28392 11.004C5.29251 10.8728 5.32691 10.7445 5.38514 10.6266C5.44337 10.5087 5.5243 10.4035 5.62328 10.3169C5.72226 10.2303 5.83734 10.1641 5.96195 10.1221C6.08655 10.08 6.21823 10.063 6.34943 10.0719C6.48063 10.0809 6.60877 10.1156 6.72653 10.1741C6.84428 10.2327 6.94933 10.3139 7.03565 10.4131L9.3838 13.0967L15.6323 7.74121C15.732 7.65574 15.8475 7.59072 15.9722 7.54989C16.097 7.50905 16.2286 7.49319 16.3595 7.50321C16.4904 7.51323 16.6181 7.54894 16.7352 7.60829C16.8523 7.66764 16.9565 7.74947 17.042 7.84912C17.1275 7.94877 17.1925 8.06427 17.2333 8.18904C17.2742 8.31381 17.29 8.4454 17.28 8.5763C17.27 8.7072 17.2343 8.83485 17.1749 8.95195C17.1156 9.06905 17.0337 9.17332 16.9341 9.25879Z" fill="#7453AF"/>
</svg>
